<svg xmlns="http://www.w3.org/2000/svg" xmlns:xlink="http://www.w3.org/1999/xlink" width="40" zoomAndPan="magnify" viewBox="0 0 30 30.000001" height="40" preserveAspectRatio="xMidYMid meet" version="1.0"><defs><g/><clipPath id="5934edd335"><path d="M 0.484375 0 L 29.515625 0 L 29.515625 29.03125 L 0.484375 29.03125 Z M 0.484375 0 " clip-rule="nonzero"/></clipPath><clipPath id="4ee74df714"><path d="M 19 8 L 22.5 8 L 22.5 10 L 19 10 Z M 19 8 " clip-rule="nonzero"/></clipPath><clipPath id="d7bbc024d7"><path d="M 19 7 L 22.5 7 L 22.5 10 L 19 10 Z M 19 7 " clip-rule="nonzero"/></clipPath><clipPath id="0047b1580c"><path d="M 18 5.753906 L 21 5.753906 L 21 9 L 18 9 Z M 18 5.753906 " clip-rule="nonzero"/></clipPath><clipPath id="5426ef146a"><path d="M 7.257812 7 L 11 7 L 11 10 L 7.257812 10 Z M 7.257812 7 " clip-rule="nonzero"/></clipPath><clipPath id="3aab5eff5f"><path d="M 9 5.753906 L 12 5.753906 L 12 9 L 9 9 Z M 9 5.753906 " clip-rule="nonzero"/></clipPath><clipPath id="f8aeef384a"><path d="M 7.257812 8 L 11 8 L 11 10 L 7.257812 10 Z M 7.257812 8 " clip-rule="nonzero"/></clipPath><clipPath id="f59ea834ca"><path d="M 16 2 L 18 2 L 18 4.832031 L 16 4.832031 Z M 16 2 " clip-rule="nonzero"/></clipPath><clipPath id="027872a6c7"><rect x="0" width="22" y="0" height="5"/></clipPath><clipPath id="e5ce755191"><rect x="0" width="16" y="0" height="3"/></clipPath></defs><g clip-path="url(#5934edd335)"><path fill="#ffffff" d="M 0.484375 0 L 29.515625 0 L 29.515625 29.03125 L 0.484375 29.03125 Z M 0.484375 0 " fill-opacity="1" fill-rule="nonzero"/><path fill="#f6f6f6" d="M 0.484375 0 L 29.515625 0 L 29.515625 29.03125 L 0.484375 29.03125 Z M 0.484375 0 " fill-opacity="1" fill-rule="nonzero"/></g><path fill="#321c66" d="M 15.882812 17.574219 C 15.6875 17.765625 15.371094 17.765625 15.175781 17.574219 L 14.886719 17.285156 L 15.0625 17.113281 C 15.320312 16.851562 15.320312 16.429688 15.0625 16.171875 C 14.9375 16.046875 14.769531 15.976562 14.589844 15.976562 C 14.566406 15.976562 14.542969 15.980469 14.515625 15.984375 C 14.589844 15.863281 14.621094 15.730469 14.609375 15.597656 L 15.882812 16.871094 C 16.074219 17.066406 16.074219 17.378906 15.882812 17.574219 Z M 15.882812 17.574219 " fill-opacity="1" fill-rule="nonzero"/><path fill="#321c66" d="M 14.945312 16.996094 L 14.710938 17.226562 L 14.480469 17.457031 C 14.285156 17.652344 13.96875 17.652344 13.773438 17.457031 C 13.679688 17.363281 13.628906 17.238281 13.628906 17.105469 C 13.628906 16.972656 13.679688 16.847656 13.773438 16.753906 L 14.238281 16.289062 C 14.332031 16.195312 14.457031 16.144531 14.589844 16.144531 C 14.726562 16.144531 14.851562 16.195312 14.945312 16.289062 C 15.140625 16.484375 15.140625 16.800781 14.945312 16.996094 Z M 14.945312 16.996094 " fill-opacity="1" fill-rule="nonzero"/><path fill="#321c66" d="M 14.300781 15.992188 L 13.890625 16.402344 C 13.890625 16.402344 13.890625 16.402344 13.890625 16.40625 L 13.660156 16.636719 C 13.464844 16.832031 13.148438 16.832031 12.953125 16.636719 C 12.757812 16.441406 12.757812 16.125 12.953125 15.929688 L 13.597656 15.285156 C 13.789062 15.09375 14.105469 15.09375 14.300781 15.285156 L 14.304688 15.289062 C 14.496094 15.484375 14.496094 15.800781 14.300781 15.992188 Z M 14.300781 15.992188 " fill-opacity="1" fill-rule="nonzero"/><path fill="#321c66" d="M 13.621094 15.027344 L 13.480469 15.167969 C 13.480469 15.167969 13.480469 15.167969 13.480469 15.171875 L 13.066406 15.582031 L 12.835938 15.8125 C 12.640625 16.007812 12.324219 16.007812 12.128906 15.8125 C 11.933594 15.617188 11.933594 15.300781 12.128906 15.109375 L 12.914062 14.324219 C 13.109375 14.128906 13.425781 14.128906 13.621094 14.324219 C 13.816406 14.515625 13.816406 14.832031 13.621094 15.027344 Z M 13.621094 15.027344 " fill-opacity="1" fill-rule="nonzero"/><path fill="#321c66" d="M 12.945312 13.851562 C 12.945312 13.984375 12.890625 14.109375 12.796875 14.207031 L 12.011719 14.992188 C 11.816406 15.183594 11.5 15.183594 11.308594 14.992188 C 11.113281 14.796875 11.113281 14.480469 11.308594 14.285156 L 11.539062 14.054688 C 11.539062 14.054688 11.539062 14.050781 11.539062 14.050781 L 12.09375 13.5 C 12.1875 13.40625 12.3125 13.355469 12.445312 13.351562 C 12.511719 13.351562 12.578125 13.367188 12.636719 13.390625 C 12.695312 13.417969 12.75 13.453125 12.796875 13.5 C 12.890625 13.59375 12.945312 13.71875 12.945312 13.851562 Z M 12.945312 13.851562 " fill-opacity="1" fill-rule="nonzero"/><path fill="#321c66" d="M 20.863281 11.117188 C 20.863281 11.226562 20.824219 11.328125 20.746094 11.402344 L 20.355469 11.789062 C 20.28125 11.867188 20.179688 11.910156 20.074219 11.910156 C 19.964844 11.910156 19.863281 11.867188 19.789062 11.789062 L 18.183594 10.1875 L 16.757812 8.761719 C 16.601562 8.605469 16.601562 8.347656 16.757812 8.191406 L 17.148438 7.804688 C 17.222656 7.726562 17.324219 7.6875 17.433594 7.6875 C 17.539062 7.6875 17.640625 7.726562 17.71875 7.804688 L 20.746094 10.832031 C 20.824219 10.90625 20.863281 11.007812 20.863281 11.117188 Z M 20.863281 11.117188 " fill-opacity="1" fill-rule="nonzero"/><path fill="#321c66" d="M 13.257812 8.703125 L 12.863281 9.097656 C 12.859375 9.097656 12.859375 9.101562 12.859375 9.101562 L 10.226562 11.734375 C 10.152344 11.808594 10.050781 11.851562 9.941406 11.851562 C 9.832031 11.851562 9.734375 11.808594 9.65625 11.734375 L 9.269531 11.34375 C 9.109375 11.1875 9.109375 10.929688 9.269531 10.773438 L 12.296875 7.746094 C 12.371094 7.667969 12.472656 7.628906 12.582031 7.628906 C 12.691406 7.628906 12.789062 7.667969 12.867188 7.746094 L 13.257812 8.132812 C 13.414062 8.292969 13.414062 8.546875 13.257812 8.703125 Z M 13.257812 8.703125 " fill-opacity="1" fill-rule="nonzero"/><path fill="#321c66" d="M 18.492188 15.25 C 18.300781 15.441406 17.984375 15.441406 17.789062 15.25 C 17.789062 15.246094 17.789062 15.246094 17.789062 15.246094 L 15.894531 13.355469 C 15.863281 13.320312 15.808594 13.320312 15.777344 13.355469 C 15.746094 13.386719 15.746094 13.4375 15.777344 13.472656 L 17.9375 15.632812 C 18.132812 15.828125 18.132812 16.144531 17.9375 16.339844 C 17.84375 16.433594 17.71875 16.484375 17.585938 16.484375 C 17.453125 16.484375 17.328125 16.433594 17.230469 16.339844 L 15.070312 14.175781 C 15.039062 14.144531 14.988281 14.144531 14.953125 14.175781 C 14.921875 14.210938 14.921875 14.261719 14.953125 14.292969 L 16.910156 16.25 C 17.003906 16.34375 17.054688 16.46875 17.054688 16.601562 C 17.054688 16.734375 17.003906 16.859375 16.910156 16.957031 C 16.714844 17.148438 16.398438 17.148438 16.203125 16.957031 L 16 16.753906 C 16 16.75 16 16.75 15.996094 16.75 L 14.421875 15.175781 C 14.421875 15.171875 14.417969 15.171875 14.417969 15.171875 C 14.265625 15.015625 14.054688 14.957031 13.855469 14.984375 C 13.988281 14.734375 13.949219 14.414062 13.738281 14.207031 C 13.5625 14.027344 13.308594 13.972656 13.082031 14.039062 C 13.101562 13.976562 13.109375 13.917969 13.109375 13.851562 C 13.109375 13.675781 13.039062 13.507812 12.914062 13.382812 C 12.789062 13.257812 12.621094 13.1875 12.445312 13.1875 C 12.269531 13.1875 12.101562 13.257812 11.976562 13.382812 L 11.484375 13.875 C 10.378906 12.707031 10.414062 11.902344 10.429688 11.761719 L 11.644531 10.550781 L 12.976562 9.214844 C 13.003906 9.191406 13.394531 8.824219 14.304688 8.792969 C 14.621094 8.78125 14.933594 8.78125 15.214844 8.785156 C 14.660156 9.023438 14.273438 9.441406 14.238281 9.480469 L 12.300781 11.417969 C 12.171875 11.542969 12.105469 11.710938 12.105469 11.886719 C 12.105469 12.066406 12.171875 12.230469 12.300781 12.359375 C 12.558594 12.617188 12.980469 12.617188 13.238281 12.359375 C 13.238281 12.359375 13.238281 12.355469 13.242188 12.355469 L 14.421875 11.175781 C 14.617188 10.980469 14.933594 10.980469 15.128906 11.175781 L 18.492188 14.542969 C 18.6875 14.738281 18.6875 15.054688 18.492188 15.25 Z M 18.492188 15.25 " fill-opacity="1" fill-rule="nonzero"/><path fill="#321c66" d="M 18.273438 14.085938 L 15.246094 11.058594 C 15.113281 10.929688 14.945312 10.863281 14.773438 10.863281 C 14.605469 10.863281 14.433594 10.929688 14.304688 11.058594 L 13.121094 12.242188 C 12.925781 12.4375 12.609375 12.4375 12.417969 12.242188 C 12.320312 12.148438 12.269531 12.023438 12.269531 11.886719 C 12.269531 11.753906 12.320312 11.628906 12.417969 11.535156 L 14.355469 9.59375 C 14.359375 9.59375 14.359375 9.59375 14.359375 9.59375 C 14.367188 9.585938 14.992188 8.898438 15.765625 8.796875 C 16.015625 8.804688 16.195312 8.816406 16.253906 8.816406 L 16.265625 8.820312 C 16.539062 8.882812 16.796875 9.03125 17.03125 9.269531 L 18.5625 10.796875 L 19.617188 11.855469 C 19.636719 11.9375 19.6875 12.523438 18.273438 14.085938 Z M 18.273438 14.085938 " fill-opacity="1" fill-rule="nonzero"/><g clip-path="url(#4ee74df714)"><path fill="#321c66" d="M 22.339844 9.523438 C 22.339844 9.71875 22.183594 9.875 21.988281 9.875 C 21.796875 9.875 21.640625 9.71875 21.640625 9.523438 C 21.640625 9.457031 21.65625 9.394531 21.691406 9.339844 L 21.011719 8.660156 L 20.082031 9.589844 C 20.066406 9.605469 20.046875 9.613281 20.023438 9.613281 C 20.003906 9.613281 19.980469 9.605469 19.964844 9.589844 C 19.933594 9.554688 19.933594 9.503906 19.964844 9.472656 L 20.953125 8.484375 C 20.96875 8.46875 20.988281 8.460938 21.011719 8.460938 C 21.03125 8.460938 21.050781 8.46875 21.070312 8.484375 L 21.523438 8.941406 L 21.808594 9.226562 C 21.859375 9.191406 21.921875 9.171875 21.988281 9.171875 C 22.183594 9.171875 22.339844 9.332031 22.339844 9.523438 Z M 22.339844 9.523438 " fill-opacity="1" fill-rule="nonzero"/></g><path fill="#321c66" d="M 19.195312 7.613281 L 18.695312 8.109375 L 18.648438 8.15625 C 18.632812 8.171875 18.613281 8.179688 18.589844 8.179688 C 18.570312 8.179688 18.550781 8.171875 18.53125 8.15625 C 18.5 8.125 18.5 8.070312 18.535156 8.039062 L 18.574219 7.996094 C 18.578125 7.996094 18.578125 7.992188 18.578125 7.992188 L 19.019531 7.554688 L 18.820312 7.359375 L 18.453125 6.988281 C 18.398438 7.023438 18.335938 7.042969 18.273438 7.042969 C 18.179688 7.042969 18.089844 7.003906 18.023438 6.9375 C 17.886719 6.800781 17.886719 6.578125 18.023438 6.441406 C 18.089844 6.378906 18.179688 6.339844 18.269531 6.339844 C 18.363281 6.339844 18.453125 6.378906 18.519531 6.441406 C 18.636719 6.558594 18.652344 6.738281 18.570312 6.871094 L 19.195312 7.496094 C 19.203125 7.503906 19.207031 7.511719 19.210938 7.523438 C 19.214844 7.53125 19.21875 7.542969 19.21875 7.554688 C 19.21875 7.578125 19.207031 7.597656 19.195312 7.613281 Z M 19.195312 7.613281 " fill-opacity="1" fill-rule="nonzero"/><g clip-path="url(#d7bbc024d7)"><path fill="#321c66" d="M 22.71875 7.691406 C 22.71875 7.886719 22.5625 8.042969 22.367188 8.042969 C 22.199219 8.042969 22.058594 7.925781 22.027344 7.765625 L 21.3125 7.765625 L 19.785156 9.292969 C 19.769531 9.308594 19.75 9.316406 19.726562 9.316406 C 19.707031 9.316406 19.683594 9.308594 19.667969 9.292969 C 19.636719 9.257812 19.636719 9.207031 19.667969 9.175781 L 21.21875 7.625 C 21.234375 7.609375 21.253906 7.601562 21.277344 7.601562 L 22.03125 7.601562 C 22.070312 7.453125 22.207031 7.34375 22.367188 7.34375 C 22.5625 7.34375 22.71875 7.5 22.71875 7.691406 Z M 22.71875 7.691406 " fill-opacity="1" fill-rule="nonzero"/></g><g clip-path="url(#0047b1580c)"><path fill="#321c66" d="M 19.980469 7.445312 L 18.960938 8.464844 C 18.945312 8.480469 18.921875 8.488281 18.902344 8.488281 C 18.878906 8.488281 18.859375 8.480469 18.84375 8.464844 C 18.808594 8.433594 18.808594 8.382812 18.84375 8.347656 L 18.886719 8.300781 L 19.839844 7.351562 L 19.839844 6.449219 C 19.679688 6.417969 19.558594 6.277344 19.558594 6.105469 C 19.558594 5.914062 19.714844 5.757812 19.910156 5.757812 C 20.101562 5.757812 20.257812 5.914062 20.257812 6.105469 C 20.257812 6.265625 20.152344 6.402344 20.003906 6.441406 L 20.003906 7.386719 C 20.003906 7.40625 19.996094 7.429688 19.980469 7.445312 Z M 19.980469 7.445312 " fill-opacity="1" fill-rule="nonzero"/></g><path fill="#321c66" d="M 19.835938 8.386719 L 19.40625 8.816406 C 19.402344 8.820312 19.402344 8.820312 19.402344 8.820312 L 19.359375 8.863281 C 19.34375 8.878906 19.320312 8.886719 19.300781 8.886719 C 19.277344 8.886719 19.257812 8.878906 19.242188 8.863281 C 19.210938 8.832031 19.210938 8.78125 19.242188 8.746094 L 19.285156 8.703125 C 19.285156 8.703125 19.289062 8.703125 19.289062 8.699219 L 19.734375 8.253906 C 19.703125 8.203125 19.683594 8.140625 19.683594 8.074219 C 19.683594 7.878906 19.839844 7.722656 20.03125 7.722656 C 20.226562 7.722656 20.382812 7.878906 20.382812 8.074219 C 20.382812 8.265625 20.226562 8.425781 20.03125 8.425781 C 19.964844 8.425781 19.902344 8.40625 19.851562 8.371094 Z M 19.835938 8.386719 " fill-opacity="1" fill-rule="nonzero"/><path fill="#321c66" d="M 10.734375 8.726562 C 10.765625 8.757812 10.765625 8.8125 10.734375 8.84375 C 10.71875 8.859375 10.699219 8.867188 10.675781 8.867188 C 10.65625 8.867188 10.632812 8.859375 10.617188 8.84375 L 10.59375 8.820312 C 10.59375 8.816406 10.59375 8.816406 10.589844 8.816406 L 10.144531 8.371094 C 10.09375 8.40625 10.03125 8.425781 9.964844 8.425781 C 9.769531 8.425781 9.613281 8.265625 9.613281 8.074219 C 9.613281 7.878906 9.769531 7.722656 9.964844 7.722656 C 10.15625 7.722656 10.3125 7.878906 10.3125 8.074219 C 10.3125 8.140625 10.296875 8.203125 10.261719 8.253906 L 10.707031 8.699219 C 10.710938 8.703125 10.710938 8.703125 10.710938 8.707031 Z M 10.734375 8.726562 " fill-opacity="1" fill-rule="nonzero"/><path fill="#321c66" d="M 11.972656 6.9375 C 11.90625 7.003906 11.816406 7.042969 11.726562 7.042969 C 11.660156 7.042969 11.597656 7.023438 11.542969 6.988281 L 10.976562 7.554688 L 11.417969 7.992188 L 11.421875 7.996094 L 11.441406 8.019531 C 11.476562 8.050781 11.476562 8.101562 11.445312 8.136719 C 11.425781 8.152344 11.40625 8.160156 11.382812 8.160156 C 11.363281 8.160156 11.34375 8.152344 11.328125 8.136719 L 11.300781 8.109375 L 10.800781 7.613281 C 10.789062 7.597656 10.777344 7.578125 10.777344 7.554688 C 10.777344 7.53125 10.789062 7.511719 10.800781 7.496094 L 11.425781 6.875 C 11.394531 6.820312 11.375 6.757812 11.375 6.691406 C 11.375 6.597656 11.410156 6.507812 11.476562 6.441406 C 11.542969 6.378906 11.632812 6.339844 11.726562 6.339844 C 11.820312 6.339844 11.90625 6.378906 11.972656 6.441406 C 12.109375 6.578125 12.109375 6.800781 11.972656 6.9375 Z M 11.972656 6.9375 " fill-opacity="1" fill-rule="nonzero"/><g clip-path="url(#5426ef146a)"><path fill="#321c66" d="M 10.308594 9.273438 C 10.292969 9.289062 10.269531 9.296875 10.25 9.296875 C 10.226562 9.296875 10.207031 9.289062 10.191406 9.273438 L 8.683594 7.765625 L 7.96875 7.765625 C 7.9375 7.925781 7.796875 8.042969 7.628906 8.042969 C 7.433594 8.042969 7.277344 7.886719 7.277344 7.691406 C 7.277344 7.5 7.433594 7.34375 7.628906 7.34375 C 7.789062 7.34375 7.925781 7.453125 7.964844 7.601562 L 8.71875 7.601562 C 8.742188 7.601562 8.761719 7.609375 8.777344 7.625 L 10.308594 9.15625 C 10.339844 9.1875 10.339844 9.238281 10.308594 9.273438 Z M 10.308594 9.273438 " fill-opacity="1" fill-rule="nonzero"/></g><g clip-path="url(#3aab5eff5f)"><path fill="#321c66" d="M 11.132812 8.328125 C 11.167969 8.359375 11.167969 8.414062 11.132812 8.445312 C 11.117188 8.460938 11.097656 8.46875 11.074219 8.46875 C 11.054688 8.46875 11.03125 8.460938 11.015625 8.445312 L 10.015625 7.445312 C 10 7.429688 9.992188 7.40625 9.992188 7.386719 L 9.992188 6.441406 C 9.84375 6.402344 9.738281 6.265625 9.738281 6.105469 C 9.738281 5.914062 9.894531 5.757812 10.085938 5.757812 C 10.28125 5.757812 10.4375 5.914062 10.4375 6.105469 C 10.4375 6.277344 10.316406 6.417969 10.15625 6.449219 L 10.15625 7.351562 Z M 11.132812 8.328125 " fill-opacity="1" fill-rule="nonzero"/></g><g clip-path="url(#f8aeef384a)"><path fill="#321c66" d="M 10.011719 9.453125 C 10.042969 9.484375 10.042969 9.535156 10.011719 9.570312 C 9.996094 9.585938 9.972656 9.59375 9.953125 9.59375 C 9.929688 9.59375 9.910156 9.585938 9.894531 9.570312 L 8.984375 8.660156 L 8.304688 9.339844 C 8.339844 9.394531 8.355469 9.457031 8.355469 9.523438 C 8.355469 9.71875 8.199219 9.875 8.007812 9.875 C 7.8125 9.875 7.65625 9.71875 7.65625 9.523438 C 7.65625 9.332031 7.8125 9.171875 8.007812 9.171875 C 8.074219 9.171875 8.136719 9.191406 8.1875 9.226562 L 8.925781 8.484375 C 8.933594 8.480469 8.9375 8.476562 8.941406 8.476562 C 8.945312 8.472656 8.949219 8.46875 8.953125 8.46875 C 8.980469 8.457031 9.007812 8.460938 9.03125 8.472656 C 9.03125 8.476562 9.03125 8.476562 9.03125 8.476562 C 9.035156 8.480469 9.039062 8.480469 9.042969 8.484375 L 9.984375 9.425781 C 9.984375 9.425781 9.988281 9.429688 9.988281 9.429688 Z M 10.011719 9.453125 " fill-opacity="1" fill-rule="nonzero"/></g><g transform="matrix(1, 0, 0, 1, 4, 17)"><g clip-path="url(#027872a6c7)"><g fill="#452c80" fill-opacity="1"><g transform="translate(1.081561, 3.798801)"><g><path d="M 0.390625 0.03125 C 0.328125 0.03125 0.296875 0.0078125 0.296875 -0.03125 L 0.296875 -2.046875 C 0.296875 -2.066406 0.300781 -2.078125 0.3125 -2.078125 C 0.332031 -2.085938 0.359375 -2.09375 0.390625 -2.09375 C 0.453125 -2.09375 0.484375 -2.078125 0.484375 -2.046875 L 0.484375 -1.171875 L 1.578125 -1.171875 L 1.578125 -2.046875 C 1.578125 -2.066406 1.582031 -2.078125 1.59375 -2.078125 C 1.613281 -2.085938 1.640625 -2.09375 1.671875 -2.09375 C 1.734375 -2.09375 1.765625 -2.078125 1.765625 -2.046875 L 1.765625 -0.03125 C 1.765625 -0.0078125 1.753906 0.00390625 1.734375 0.015625 C 1.722656 0.0234375 1.703125 0.03125 1.671875 0.03125 C 1.609375 0.03125 1.578125 0.0078125 1.578125 -0.03125 L 1.578125 -1 L 0.484375 -1 L 0.484375 -0.03125 C 0.484375 -0.0078125 0.472656 0.00390625 0.453125 0.015625 C 0.441406 0.0234375 0.421875 0.03125 0.390625 0.03125 Z M 0.390625 0.03125 "/></g></g></g><g fill="#452c80" fill-opacity="1"><g transform="translate(3.148581, 3.798801)"><g><path d="M 0.5625 0.03125 C 0.476562 0.03125 0.40625 0.015625 0.34375 -0.015625 C 0.28125 -0.0546875 0.226562 -0.117188 0.1875 -0.203125 C 0.15625 -0.285156 0.140625 -0.390625 0.140625 -0.515625 C 0.140625 -0.585938 0.144531 -0.65625 0.15625 -0.71875 C 0.175781 -0.789062 0.195312 -0.851562 0.21875 -0.90625 C 0.25 -0.957031 0.285156 -1 0.328125 -1.03125 C 0.367188 -1.070312 0.410156 -1.097656 0.453125 -1.109375 C 0.503906 -1.128906 0.5625 -1.140625 0.625 -1.140625 C 0.675781 -1.140625 0.722656 -1.128906 0.765625 -1.109375 C 0.816406 -1.097656 0.867188 -1.082031 0.921875 -1.0625 L 0.921875 -1.078125 C 0.921875 -1.097656 0.925781 -1.113281 0.9375 -1.125 C 0.957031 -1.132812 0.984375 -1.140625 1.015625 -1.140625 C 1.046875 -1.140625 1.066406 -1.132812 1.078125 -1.125 C 1.097656 -1.113281 1.109375 -1.097656 1.109375 -1.078125 L 1.109375 -0.21875 C 1.109375 -0.195312 1.109375 -0.175781 1.109375 -0.15625 C 1.117188 -0.144531 1.128906 -0.132812 1.140625 -0.125 C 1.148438 -0.125 1.160156 -0.125 1.171875 -0.125 C 1.191406 -0.125 1.207031 -0.125 1.21875 -0.125 C 1.226562 -0.132812 1.234375 -0.140625 1.234375 -0.140625 C 1.242188 -0.148438 1.257812 -0.160156 1.28125 -0.171875 C 1.289062 -0.179688 1.300781 -0.179688 1.3125 -0.171875 C 1.320312 -0.171875 1.332031 -0.164062 1.34375 -0.15625 C 1.363281 -0.144531 1.375 -0.128906 1.375 -0.109375 C 1.375 -0.0976562 1.367188 -0.0859375 1.359375 -0.078125 C 1.347656 -0.046875 1.328125 -0.0195312 1.296875 0 C 1.273438 0.0078125 1.25 0.015625 1.21875 0.015625 C 1.1875 0.0234375 1.160156 0.03125 1.140625 0.03125 C 1.097656 0.03125 1.066406 0.0234375 1.046875 0.015625 C 1.023438 0.015625 1.003906 0.0078125 0.984375 0 C 0.960938 -0.0195312 0.945312 -0.0390625 0.9375 -0.0625 C 0.925781 -0.0820312 0.921875 -0.109375 0.921875 -0.140625 C 0.921875 -0.148438 0.921875 -0.160156 0.921875 -0.171875 C 0.878906 -0.109375 0.835938 -0.0625 0.796875 -0.03125 C 0.765625 -0.0078125 0.726562 0.00390625 0.6875 0.015625 C 0.644531 0.0234375 0.601562 0.03125 0.5625 0.03125 Z M 0.328125 -0.53125 C 0.328125 -0.445312 0.335938 -0.375 0.359375 -0.3125 C 0.378906 -0.257812 0.40625 -0.21875 0.4375 -0.1875 C 0.476562 -0.15625 0.53125 -0.140625 0.59375 -0.140625 C 0.632812 -0.140625 0.675781 -0.144531 0.71875 -0.15625 C 0.757812 -0.175781 0.796875 -0.203125 0.828125 -0.234375 C 0.859375 -0.265625 0.890625 -0.304688 0.921875 -0.359375 L 0.921875 -0.90625 C 0.867188 -0.925781 0.820312 -0.941406 0.78125 -0.953125 C 0.738281 -0.960938 0.695312 -0.96875 0.65625 -0.96875 C 0.613281 -0.96875 0.578125 -0.960938 0.546875 -0.953125 C 0.515625 -0.941406 0.484375 -0.921875 0.453125 -0.890625 C 0.429688 -0.867188 0.410156 -0.84375 0.390625 -0.8125 C 0.367188 -0.78125 0.351562 -0.738281 0.34375 -0.6875 C 0.332031 -0.632812 0.328125 -0.582031 0.328125 -0.53125 Z M 0.328125 -0.53125 "/></g></g></g><g fill="#452c80" fill-opacity="1"><g transform="translate(4.520711, 3.798801)"><g><path d="M 0.359375 0.03125 C 0.328125 0.03125 0.300781 0.0234375 0.28125 0.015625 C 0.269531 0.00390625 0.265625 -0.0078125 0.265625 -0.03125 L 0.265625 -0.8125 C 0.265625 -0.875 0.253906 -0.914062 0.234375 -0.9375 C 0.210938 -0.957031 0.1875 -0.96875 0.15625 -0.96875 C 0.125 -0.96875 0.0976562 -0.960938 0.078125 -0.953125 C 0.0664062 -0.941406 0.0546875 -0.921875 0.046875 -0.890625 C 0.0351562 -0.867188 0.03125 -0.835938 0.03125 -0.796875 C 0.03125 -0.773438 0.0234375 -0.757812 0.015625 -0.75 C 0.00390625 -0.738281 -0.015625 -0.734375 -0.046875 -0.734375 C -0.0664062 -0.734375 -0.0820312 -0.738281 -0.09375 -0.75 C -0.113281 -0.757812 -0.125 -0.785156 -0.125 -0.828125 C -0.113281 -0.890625 -0.0976562 -0.941406 -0.078125 -0.984375 C -0.0546875 -1.035156 -0.0234375 -1.070312 0.015625 -1.09375 C 0.0546875 -1.125 0.101562 -1.140625 0.15625 -1.140625 C 0.195312 -1.140625 0.226562 -1.132812 0.25 -1.125 C 0.28125 -1.113281 0.304688 -1.097656 0.328125 -1.078125 C 0.359375 -1.066406 0.378906 -1.046875 0.390625 -1.015625 C 0.410156 -0.992188 0.425781 -0.96875 0.4375 -0.9375 L 0.4375 -0.90625 C 0.457031 -0.945312 0.476562 -0.976562 0.5 -1 C 0.53125 -1.03125 0.5625 -1.054688 0.59375 -1.078125 C 0.632812 -1.097656 0.671875 -1.113281 0.703125 -1.125 C 0.742188 -1.132812 0.785156 -1.140625 0.828125 -1.140625 C 0.898438 -1.140625 0.960938 -1.125 1.015625 -1.09375 C 1.078125 -1.070312 1.125 -1.03125 1.15625 -0.96875 C 1.195312 -0.90625 1.21875 -0.828125 1.21875 -0.734375 L 1.21875 -0.21875 C 1.21875 -0.195312 1.21875 -0.175781 1.21875 -0.15625 C 1.226562 -0.144531 1.238281 -0.132812 1.25 -0.125 C 1.257812 -0.125 1.269531 -0.125 1.28125 -0.125 C 1.289062 -0.125 1.300781 -0.125 1.3125 -0.125 C 1.332031 -0.132812 1.347656 -0.144531 1.359375 -0.15625 C 1.367188 -0.164062 1.378906 -0.171875 1.390625 -0.171875 C 1.398438 -0.179688 1.410156 -0.179688 1.421875 -0.171875 C 1.441406 -0.171875 1.453125 -0.164062 1.453125 -0.15625 C 1.472656 -0.132812 1.484375 -0.117188 1.484375 -0.109375 C 1.484375 -0.0976562 1.476562 -0.0820312 1.46875 -0.0625 C 1.445312 -0.0390625 1.425781 -0.0195312 1.40625 0 C 1.382812 0.0078125 1.359375 0.015625 1.328125 0.015625 C 1.296875 0.0234375 1.269531 0.03125 1.25 0.03125 C 1.207031 0.03125 1.171875 0.0234375 1.140625 0.015625 C 1.117188 0.00390625 1.097656 -0.00390625 1.078125 -0.015625 C 1.054688 -0.0351562 1.039062 -0.0625 1.03125 -0.09375 C 1.03125 -0.125 1.03125 -0.15625 1.03125 -0.1875 L 1.03125 -0.71875 C 1.03125 -0.769531 1.019531 -0.8125 1 -0.84375 C 0.988281 -0.882812 0.960938 -0.914062 0.921875 -0.9375 C 0.890625 -0.957031 0.847656 -0.96875 0.796875 -0.96875 C 0.765625 -0.96875 0.734375 -0.960938 0.703125 -0.953125 C 0.671875 -0.941406 0.640625 -0.925781 0.609375 -0.90625 C 0.578125 -0.882812 0.546875 -0.859375 0.515625 -0.828125 C 0.492188 -0.796875 0.472656 -0.757812 0.453125 -0.71875 L 0.453125 -0.03125 C 0.453125 -0.0078125 0.441406 0.00390625 0.421875 0.015625 C 0.410156 0.0234375 0.390625 0.03125 0.359375 0.03125 Z M 0.359375 0.03125 "/></g></g></g><g fill="#452c80" fill-opacity="1"><g transform="translate(6.000935, 3.798801)"><g><path d="M 0.5625 0.03125 C 0.476562 0.03125 0.40625 0.015625 0.34375 -0.015625 C 0.28125 -0.0546875 0.226562 -0.117188 0.1875 -0.203125 C 0.15625 -0.285156 0.140625 -0.390625 0.140625 -0.515625 C 0.140625 -0.585938 0.144531 -0.65625 0.15625 -0.71875 C 0.175781 -0.789062 0.195312 -0.851562 0.21875 -0.90625 C 0.25 -0.957031 0.285156 -1 0.328125 -1.03125 C 0.367188 -1.070312 0.414062 -1.097656 0.46875 -1.109375 C 0.519531 -1.128906 0.578125 -1.140625 0.640625 -1.140625 C 0.679688 -1.140625 0.726562 -1.132812 0.78125 -1.125 C 0.832031 -1.113281 0.878906 -1.09375 0.921875 -1.0625 L 0.921875 -2.046875 C 0.921875 -2.066406 0.925781 -2.078125 0.9375 -2.078125 C 0.957031 -2.085938 0.984375 -2.09375 1.015625 -2.09375 C 1.046875 -2.09375 1.066406 -2.085938 1.078125 -2.078125 C 1.097656 -2.078125 1.109375 -2.066406 1.109375 -2.046875 L 1.109375 -0.21875 C 1.109375 -0.1875 1.113281 -0.160156 1.125 -0.140625 C 1.132812 -0.128906 1.148438 -0.125 1.171875 -0.125 C 1.191406 -0.125 1.207031 -0.125 1.21875 -0.125 C 1.226562 -0.132812 1.238281 -0.140625 1.25 -0.140625 C 1.257812 -0.148438 1.269531 -0.160156 1.28125 -0.171875 C 1.289062 -0.179688 1.300781 -0.179688 1.3125 -0.171875 C 1.332031 -0.171875 1.347656 -0.164062 1.359375 -0.15625 C 1.367188 -0.144531 1.375 -0.128906 1.375 -0.109375 C 1.375 -0.0976562 1.367188 -0.0859375 1.359375 -0.078125 C 1.347656 -0.046875 1.328125 -0.0195312 1.296875 0 C 1.273438 0.0078125 1.25 0.015625 1.21875 0.015625 C 1.195312 0.0234375 1.171875 0.03125 1.140625 0.03125 C 1.078125 0.03125 1.03125 0.0195312 1 0 C 0.96875 -0.0195312 0.945312 -0.0390625 0.9375 -0.0625 C 0.925781 -0.09375 0.921875 -0.125 0.921875 -0.15625 C 0.921875 -0.164062 0.921875 -0.171875 0.921875 -0.171875 C 0.890625 -0.109375 0.851562 -0.0625 0.8125 -0.03125 C 0.769531 -0.0078125 0.726562 0.00390625 0.6875 0.015625 C 0.644531 0.0234375 0.601562 0.03125 0.5625 0.03125 Z M 0.328125 -0.53125 C 0.328125 -0.445312 0.335938 -0.375 0.359375 -0.3125 C 0.378906 -0.257812 0.40625 -0.21875 0.4375 -0.1875 C 0.476562 -0.15625 0.53125 -0.140625 0.59375 -0.140625 C 0.632812 -0.140625 0.675781 -0.144531 0.71875 -0.15625 C 0.757812 -0.175781 0.796875 -0.203125 0.828125 -0.234375 C 0.859375 -0.265625 0.890625 -0.304688 0.921875 -0.359375 L 0.921875 -0.890625 C 0.878906 -0.921875 0.832031 -0.941406 0.78125 -0.953125 C 0.738281 -0.960938 0.695312 -0.96875 0.65625 -0.96875 C 0.613281 -0.96875 0.578125 -0.960938 0.546875 -0.953125 C 0.515625 -0.941406 0.484375 -0.921875 0.453125 -0.890625 C 0.429688 -0.867188 0.410156 -0.84375 0.390625 -0.8125 C 0.367188 -0.78125 0.351562 -0.738281 0.34375 -0.6875 C 0.332031 -0.632812 0.328125 -0.582031 0.328125 -0.53125 Z M 0.328125 -0.53125 "/></g></g></g><g fill="#452c80" fill-opacity="1"><g transform="translate(7.386302, 3.798801)"><g><path d="M 0.390625 0 C 0.328125 0 0.296875 -0.0195312 0.296875 -0.0625 L 0.296875 -2 C 0.296875 -2.039062 0.328125 -2.0625 0.390625 -2.0625 L 0.859375 -2.0625 C 0.992188 -2.0625 1.101562 -2.046875 1.1875 -2.015625 C 1.28125 -1.992188 1.351562 -1.953125 1.40625 -1.890625 C 1.457031 -1.828125 1.484375 -1.738281 1.484375 -1.625 C 1.484375 -1.550781 1.46875 -1.484375 1.4375 -1.421875 C 1.40625 -1.367188 1.363281 -1.316406 1.3125 -1.265625 C 1.269531 -1.222656 1.222656 -1.1875 1.171875 -1.15625 C 1.117188 -1.132812 1.066406 -1.113281 1.015625 -1.09375 C 1.085938 -1.09375 1.15625 -1.082031 1.21875 -1.0625 C 1.28125 -1.039062 1.335938 -1.015625 1.390625 -0.984375 C 1.453125 -0.953125 1.492188 -0.90625 1.515625 -0.84375 C 1.546875 -0.789062 1.5625 -0.722656 1.5625 -0.640625 C 1.5625 -0.566406 1.550781 -0.492188 1.53125 -0.421875 C 1.507812 -0.359375 1.476562 -0.300781 1.4375 -0.25 C 1.394531 -0.195312 1.335938 -0.148438 1.265625 -0.109375 C 1.203125 -0.078125 1.128906 -0.0507812 1.046875 -0.03125 C 0.972656 -0.0078125 0.890625 0 0.796875 0 Z M 0.484375 -0.171875 L 0.796875 -0.171875 C 0.898438 -0.171875 0.988281 -0.179688 1.0625 -0.203125 C 1.132812 -0.234375 1.191406 -0.269531 1.234375 -0.3125 C 1.273438 -0.363281 1.304688 -0.414062 1.328125 -0.46875 C 1.359375 -0.519531 1.375 -0.578125 1.375 -0.640625 C 1.375 -0.703125 1.359375 -0.753906 1.328125 -0.796875 C 1.304688 -0.847656 1.273438 -0.890625 1.234375 -0.921875 C 1.191406 -0.953125 1.132812 -0.972656 1.0625 -0.984375 C 1 -0.992188 0.925781 -1 0.84375 -1 L 0.484375 -1 Z M 0.484375 -1.1875 L 0.8125 -1.1875 C 0.875 -1.1875 0.929688 -1.195312 0.984375 -1.21875 C 1.046875 -1.238281 1.097656 -1.265625 1.140625 -1.296875 C 1.191406 -1.335938 1.226562 -1.382812 1.25 -1.4375 C 1.269531 -1.488281 1.28125 -1.550781 1.28125 -1.625 C 1.28125 -1.695312 1.257812 -1.75 1.21875 -1.78125 C 1.1875 -1.820312 1.140625 -1.847656 1.078125 -1.859375 C 1.015625 -1.878906 0.941406 -1.890625 0.859375 -1.890625 L 0.484375 -1.890625 Z M 0.484375 -1.1875 "/></g></g></g><g fill="#452c80" fill-opacity="1"><g transform="translate(9.07389, 3.798801)"><g><path d="M 0.59375 0.03125 C 0.507812 0.03125 0.4375 0.0195312 0.375 0 C 0.320312 -0.03125 0.28125 -0.078125 0.25 -0.140625 C 0.21875 -0.203125 0.203125 -0.273438 0.203125 -0.359375 L 0.203125 -1.078125 C 0.203125 -1.097656 0.207031 -1.113281 0.21875 -1.125 C 0.238281 -1.132812 0.265625 -1.140625 0.296875 -1.140625 C 0.328125 -1.140625 0.347656 -1.132812 0.359375 -1.125 C 0.378906 -1.113281 0.390625 -1.097656 0.390625 -1.078125 L 0.390625 -0.359375 C 0.390625 -0.304688 0.394531 -0.265625 0.40625 -0.234375 C 0.425781 -0.203125 0.453125 -0.175781 0.484375 -0.15625 C 0.523438 -0.132812 0.566406 -0.125 0.609375 -0.125 C 0.648438 -0.125 0.6875 -0.128906 0.71875 -0.140625 C 0.757812 -0.160156 0.796875 -0.179688 0.828125 -0.203125 C 0.859375 -0.222656 0.882812 -0.25 0.90625 -0.28125 C 0.925781 -0.3125 0.941406 -0.347656 0.953125 -0.390625 L 0.953125 -1.078125 C 0.953125 -1.097656 0.957031 -1.113281 0.96875 -1.125 C 0.988281 -1.132812 1.015625 -1.140625 1.046875 -1.140625 C 1.078125 -1.140625 1.097656 -1.132812 1.109375 -1.125 C 1.128906 -1.113281 1.140625 -1.097656 1.140625 -1.078125 L 1.140625 -0.21875 C 1.140625 -0.195312 1.144531 -0.175781 1.15625 -0.15625 C 1.164062 -0.144531 1.175781 -0.132812 1.1875 -0.125 C 1.195312 -0.125 1.207031 -0.125 1.21875 -0.125 C 1.226562 -0.125 1.238281 -0.125 1.25 -0.125 C 1.257812 -0.132812 1.269531 -0.144531 1.28125 -0.15625 C 1.289062 -0.164062 1.300781 -0.171875 1.3125 -0.171875 C 1.332031 -0.179688 1.347656 -0.179688 1.359375 -0.171875 C 1.367188 -0.171875 1.378906 -0.164062 1.390625 -0.15625 C 1.398438 -0.144531 1.40625 -0.128906 1.40625 -0.109375 C 1.414062 -0.0976562 1.414062 -0.0859375 1.40625 -0.078125 C 1.382812 -0.0546875 1.363281 -0.0351562 1.34375 -0.015625 C 1.320312 0.00390625 1.296875 0.0195312 1.265625 0.03125 C 1.234375 0.0390625 1.207031 0.046875 1.1875 0.046875 C 1.144531 0.046875 1.109375 0.0390625 1.078125 0.03125 C 1.054688 0.0195312 1.035156 0.00390625 1.015625 -0.015625 C 1.003906 -0.0351562 0.992188 -0.0546875 0.984375 -0.078125 C 0.972656 -0.0976562 0.96875 -0.125 0.96875 -0.15625 L 0.953125 -0.171875 C 0.941406 -0.140625 0.921875 -0.109375 0.890625 -0.078125 C 0.867188 -0.0546875 0.84375 -0.0351562 0.8125 -0.015625 C 0.78125 0.00390625 0.742188 0.015625 0.703125 0.015625 C 0.671875 0.0234375 0.632812 0.03125 0.59375 0.03125 Z M 0.59375 0.03125 "/></g></g></g><g fill="#452c80" fill-opacity="1"><g transform="translate(10.498964, 3.798801)"><g><path d="M 0.421875 0.03125 C 0.347656 0.03125 0.289062 0.015625 0.25 -0.015625 C 0.21875 -0.0546875 0.203125 -0.113281 0.203125 -0.1875 L 0.203125 -1.078125 C 0.203125 -1.097656 0.207031 -1.113281 0.21875 -1.125 C 0.238281 -1.132812 0.265625 -1.140625 0.296875 -1.140625 C 0.328125 -1.140625 0.347656 -1.132812 0.359375 -1.125 C 0.378906 -1.113281 0.390625 -1.097656 0.390625 -1.078125 L 0.390625 -0.21875 C 0.390625 -0.1875 0.394531 -0.160156 0.40625 -0.140625 C 0.425781 -0.128906 0.445312 -0.125 0.46875 -0.125 C 0.476562 -0.125 0.488281 -0.125 0.5 -0.125 C 0.507812 -0.132812 0.519531 -0.144531 0.53125 -0.15625 C 0.539062 -0.164062 0.550781 -0.171875 0.5625 -0.171875 C 0.570312 -0.179688 0.582031 -0.179688 0.59375 -0.171875 C 0.613281 -0.171875 0.628906 -0.164062 0.640625 -0.15625 C 0.648438 -0.144531 0.65625 -0.128906 0.65625 -0.109375 C 0.65625 -0.0976562 0.65625 -0.0859375 0.65625 -0.078125 C 0.632812 -0.046875 0.609375 -0.0195312 0.578125 0 C 0.554688 0.0078125 0.53125 0.015625 0.5 0.015625 C 0.476562 0.0234375 0.453125 0.03125 0.421875 0.03125 Z M 0.296875 -1.46875 C 0.265625 -1.46875 0.234375 -1.476562 0.203125 -1.5 C 0.179688 -1.53125 0.171875 -1.566406 0.171875 -1.609375 C 0.171875 -1.660156 0.179688 -1.695312 0.203125 -1.71875 C 0.234375 -1.738281 0.265625 -1.75 0.296875 -1.75 C 0.335938 -1.75 0.367188 -1.738281 0.390625 -1.71875 C 0.410156 -1.695312 0.421875 -1.660156 0.421875 -1.609375 C 0.421875 -1.566406 0.410156 -1.53125 0.390625 -1.5 C 0.367188 -1.476562 0.335938 -1.46875 0.296875 -1.46875 Z M 0.296875 -1.46875 "/></g></g></g><g fill="#452c80" fill-opacity="1"><g transform="translate(11.160764, 3.798801)"><g><path d="M 0.421875 0.03125 C 0.347656 0.03125 0.289062 0.015625 0.25 -0.015625 C 0.21875 -0.0546875 0.203125 -0.113281 0.203125 -0.1875 L 0.203125 -2.046875 C 0.203125 -2.066406 0.207031 -2.078125 0.21875 -2.078125 C 0.238281 -2.085938 0.265625 -2.09375 0.296875 -2.09375 C 0.328125 -2.09375 0.351562 -2.085938 0.375 -2.078125 C 0.394531 -2.078125 0.40625 -2.066406 0.40625 -2.046875 L 0.40625 -0.21875 C 0.40625 -0.1875 0.410156 -0.160156 0.421875 -0.140625 C 0.429688 -0.128906 0.445312 -0.125 0.46875 -0.125 C 0.476562 -0.125 0.488281 -0.125 0.5 -0.125 C 0.519531 -0.132812 0.535156 -0.144531 0.546875 -0.15625 C 0.554688 -0.164062 0.566406 -0.171875 0.578125 -0.171875 C 0.585938 -0.179688 0.597656 -0.179688 0.609375 -0.171875 C 0.617188 -0.171875 0.628906 -0.164062 0.640625 -0.15625 C 0.648438 -0.144531 0.65625 -0.128906 0.65625 -0.109375 C 0.664062 -0.0976562 0.664062 -0.0859375 0.65625 -0.078125 C 0.644531 -0.0546875 0.625 -0.0351562 0.59375 -0.015625 C 0.570312 0.00390625 0.546875 0.015625 0.515625 0.015625 C 0.484375 0.0234375 0.453125 0.03125 0.421875 0.03125 Z M 0.421875 0.03125 "/></g></g></g><g fill="#452c80" fill-opacity="1"><g transform="translate(11.820356, 3.798801)"><g><path d="M 0.53125 0.03125 C 0.46875 0.03125 0.414062 0.0195312 0.375 0 C 0.34375 -0.0195312 0.316406 -0.0507812 0.296875 -0.09375 C 0.273438 -0.132812 0.265625 -0.1875 0.265625 -0.25 L 0.265625 -0.921875 L 0.09375 -0.921875 C 0.0703125 -0.921875 0.0546875 -0.925781 0.046875 -0.9375 C 0.0351562 -0.957031 0.03125 -0.984375 0.03125 -1.015625 C 0.03125 -1.046875 0.0351562 -1.066406 0.046875 -1.078125 C 0.0546875 -1.097656 0.0703125 -1.109375 0.09375 -1.109375 L 0.265625 -1.109375 L 0.265625 -1.546875 C 0.265625 -1.566406 0.269531 -1.582031 0.28125 -1.59375 C 0.300781 -1.601562 0.328125 -1.609375 0.359375 -1.609375 C 0.390625 -1.609375 0.410156 -1.601562 0.421875 -1.59375 C 0.441406 -1.582031 0.453125 -1.566406 0.453125 -1.546875 L 0.453125 -1.109375 L 0.734375 -1.109375 C 0.753906 -1.109375 0.769531 -1.097656 0.78125 -1.078125 C 0.789062 -1.066406 0.796875 -1.046875 0.796875 -1.015625 C 0.796875 -0.984375 0.789062 -0.957031 0.78125 -0.9375 C 0.769531 -0.925781 0.753906 -0.921875 0.734375 -0.921875 L 0.453125 -0.921875 L 0.453125 -0.265625 C 0.453125 -0.210938 0.457031 -0.175781 0.46875 -0.15625 C 0.488281 -0.132812 0.515625 -0.125 0.546875 -0.125 C 0.578125 -0.125 0.601562 -0.128906 0.625 -0.140625 C 0.65625 -0.160156 0.6875 -0.1875 0.71875 -0.21875 C 0.726562 -0.226562 0.738281 -0.226562 0.75 -0.21875 C 0.769531 -0.21875 0.785156 -0.210938 0.796875 -0.203125 C 0.816406 -0.179688 0.828125 -0.160156 0.828125 -0.140625 C 0.828125 -0.128906 0.820312 -0.117188 0.8125 -0.109375 C 0.789062 -0.078125 0.765625 -0.046875 0.734375 -0.015625 C 0.703125 0.00390625 0.671875 0.015625 0.640625 0.015625 C 0.609375 0.0234375 0.570312 0.03125 0.53125 0.03125 Z M 0.53125 0.03125 "/></g></g></g><g fill="#452c80" fill-opacity="1"><g transform="translate(12.676284, 3.798801)"><g/></g></g><g fill="#452c80" fill-opacity="1"><g transform="translate(13.338083, 3.798801)"><g><path d="M 0.390625 0 C 0.328125 0 0.296875 -0.0195312 0.296875 -0.0625 L 0.296875 -2 C 0.296875 -2.019531 0.300781 -2.035156 0.3125 -2.046875 C 0.332031 -2.054688 0.359375 -2.0625 0.390625 -2.0625 L 0.8125 -2.0625 C 0.988281 -2.0625 1.140625 -2.035156 1.265625 -1.984375 C 1.390625 -1.941406 1.492188 -1.875 1.578125 -1.78125 C 1.660156 -1.695312 1.722656 -1.597656 1.765625 -1.484375 C 1.804688 -1.378906 1.828125 -1.265625 1.828125 -1.140625 C 1.828125 -1.003906 1.8125 -0.875 1.78125 -0.75 C 1.757812 -0.632812 1.71875 -0.53125 1.65625 -0.4375 C 1.59375 -0.34375 1.515625 -0.265625 1.421875 -0.203125 C 1.335938 -0.140625 1.234375 -0.0859375 1.109375 -0.046875 C 0.984375 -0.015625 0.84375 0 0.6875 0 Z M 0.484375 -0.1875 L 0.6875 -0.1875 C 0.8125 -0.1875 0.925781 -0.195312 1.03125 -0.21875 C 1.132812 -0.25 1.222656 -0.289062 1.296875 -0.34375 C 1.367188 -0.394531 1.425781 -0.457031 1.46875 -0.53125 C 1.519531 -0.613281 1.554688 -0.703125 1.578125 -0.796875 C 1.609375 -0.898438 1.625 -1.015625 1.625 -1.140625 C 1.625 -1.242188 1.601562 -1.335938 1.5625 -1.421875 C 1.53125 -1.515625 1.476562 -1.59375 1.40625 -1.65625 C 1.34375 -1.726562 1.257812 -1.78125 1.15625 -1.8125 C 1.0625 -1.851562 0.945312 -1.875 0.8125 -1.875 L 0.484375 -1.875 Z M 0.484375 -0.1875 "/></g></g></g><g fill="#452c80" fill-opacity="1"><g transform="translate(15.360983, 3.798801)"><g><path d="M 0.421875 0.03125 C 0.347656 0.03125 0.289062 0.015625 0.25 -0.015625 C 0.21875 -0.0546875 0.203125 -0.113281 0.203125 -0.1875 L 0.203125 -1.078125 C 0.203125 -1.097656 0.207031 -1.113281 0.21875 -1.125 C 0.238281 -1.132812 0.265625 -1.140625 0.296875 -1.140625 C 0.328125 -1.140625 0.347656 -1.132812 0.359375 -1.125 C 0.378906 -1.113281 0.390625 -1.097656 0.390625 -1.078125 L 0.390625 -0.21875 C 0.390625 -0.1875 0.394531 -0.160156 0.40625 -0.140625 C 0.425781 -0.128906 0.445312 -0.125 0.46875 -0.125 C 0.476562 -0.125 0.488281 -0.125 0.5 -0.125 C 0.507812 -0.132812 0.519531 -0.144531 0.53125 -0.15625 C 0.539062 -0.164062 0.550781 -0.171875 0.5625 -0.171875 C 0.570312 -0.179688 0.582031 -0.179688 0.59375 -0.171875 C 0.613281 -0.171875 0.628906 -0.164062 0.640625 -0.15625 C 0.648438 -0.144531 0.65625 -0.128906 0.65625 -0.109375 C 0.65625 -0.0976562 0.65625 -0.0859375 0.65625 -0.078125 C 0.632812 -0.046875 0.609375 -0.0195312 0.578125 0 C 0.554688 0.0078125 0.53125 0.015625 0.5 0.015625 C 0.476562 0.0234375 0.453125 0.03125 0.421875 0.03125 Z M 0.296875 -1.46875 C 0.265625 -1.46875 0.234375 -1.476562 0.203125 -1.5 C 0.179688 -1.53125 0.171875 -1.566406 0.171875 -1.609375 C 0.171875 -1.660156 0.179688 -1.695312 0.203125 -1.71875 C 0.234375 -1.738281 0.265625 -1.75 0.296875 -1.75 C 0.335938 -1.75 0.367188 -1.738281 0.390625 -1.71875 C 0.410156 -1.695312 0.421875 -1.660156 0.421875 -1.609375 C 0.421875 -1.566406 0.410156 -1.53125 0.390625 -1.5 C 0.367188 -1.476562 0.335938 -1.46875 0.296875 -1.46875 Z M 0.296875 -1.46875 "/></g></g></g><g clip-path="url(#f59ea834ca)"><g fill="#452c80" fill-opacity="1"><g transform="translate(16.022783, 3.798801)"><g><path d="M 0.625 1 C 0.53125 1 0.445312 0.976562 0.375 0.9375 C 0.300781 0.90625 0.25 0.863281 0.21875 0.8125 C 0.195312 0.789062 0.1875 0.769531 0.1875 0.75 C 0.195312 0.726562 0.21875 0.707031 0.25 0.6875 C 0.269531 0.664062 0.285156 0.65625 0.296875 0.65625 C 0.316406 0.664062 0.335938 0.675781 0.359375 0.6875 C 0.398438 0.738281 0.441406 0.773438 0.484375 0.796875 C 0.535156 0.816406 0.585938 0.828125 0.640625 0.828125 C 0.691406 0.828125 0.738281 0.816406 0.78125 0.796875 C 0.832031 0.773438 0.867188 0.734375 0.890625 0.671875 C 0.910156 0.617188 0.921875 0.550781 0.921875 0.46875 L 0.921875 -0.171875 C 0.890625 -0.109375 0.851562 -0.0625 0.8125 -0.03125 C 0.769531 -0.0078125 0.726562 0.00390625 0.6875 0.015625 C 0.644531 0.0234375 0.601562 0.03125 0.5625 0.03125 C 0.476562 0.03125 0.40625 0.015625 0.34375 -0.015625 C 0.28125 -0.0546875 0.226562 -0.117188 0.1875 -0.203125 C 0.15625 -0.285156 0.140625 -0.390625 0.140625 -0.515625 C 0.140625 -0.585938 0.144531 -0.65625 0.15625 -0.71875 C 0.175781 -0.789062 0.195312 -0.851562 0.21875 -0.90625 C 0.25 -0.957031 0.285156 -1 0.328125 -1.03125 C 0.367188 -1.070312 0.410156 -1.097656 0.453125 -1.109375 C 0.503906 -1.128906 0.5625 -1.140625 0.625 -1.140625 C 0.675781 -1.140625 0.726562 -1.132812 0.78125 -1.125 C 0.832031 -1.113281 0.878906 -1.09375 0.921875 -1.0625 L 0.921875 -1.078125 C 0.921875 -1.097656 0.925781 -1.113281 0.9375 -1.125 C 0.957031 -1.132812 0.984375 -1.140625 1.015625 -1.140625 C 1.046875 -1.140625 1.066406 -1.132812 1.078125 -1.125 C 1.097656 -1.113281 1.109375 -1.097656 1.109375 -1.078125 L 1.109375 0.46875 C 1.109375 0.59375 1.085938 0.691406 1.046875 0.765625 C 1.003906 0.847656 0.945312 0.90625 0.875 0.9375 C 0.8125 0.976562 0.726562 1 0.625 1 Z M 0.59375 -0.140625 C 0.632812 -0.140625 0.675781 -0.144531 0.71875 -0.15625 C 0.757812 -0.175781 0.796875 -0.203125 0.828125 -0.234375 C 0.859375 -0.265625 0.890625 -0.3125 0.921875 -0.375 L 0.921875 -0.890625 C 0.878906 -0.921875 0.832031 -0.941406 0.78125 -0.953125 C 0.738281 -0.960938 0.695312 -0.96875 0.65625 -0.96875 C 0.613281 -0.96875 0.578125 -0.960938 0.546875 -0.953125 C 0.515625 -0.941406 0.484375 -0.921875 0.453125 -0.890625 C 0.429688 -0.867188 0.410156 -0.84375 0.390625 -0.8125 C 0.367188 -0.78125 0.351562 -0.738281 0.34375 -0.6875 C 0.332031 -0.632812 0.328125 -0.582031 0.328125 -0.53125 C 0.328125 -0.445312 0.335938 -0.375 0.359375 -0.3125 C 0.378906 -0.257812 0.40625 -0.21875 0.4375 -0.1875 C 0.476562 -0.15625 0.53125 -0.140625 0.59375 -0.140625 Z M 0.59375 -0.140625 "/></g></g></g></g><g fill="#452c80" fill-opacity="1"><g transform="translate(17.368442, 3.798801)"><g><path d="M 0.421875 0.03125 C 0.347656 0.03125 0.289062 0.015625 0.25 -0.015625 C 0.21875 -0.0546875 0.203125 -0.113281 0.203125 -0.1875 L 0.203125 -1.078125 C 0.203125 -1.097656 0.207031 -1.113281 0.21875 -1.125 C 0.238281 -1.132812 0.265625 -1.140625 0.296875 -1.140625 C 0.328125 -1.140625 0.347656 -1.132812 0.359375 -1.125 C 0.378906 -1.113281 0.390625 -1.097656 0.390625 -1.078125 L 0.390625 -0.21875 C 0.390625 -0.1875 0.394531 -0.160156 0.40625 -0.140625 C 0.425781 -0.128906 0.445312 -0.125 0.46875 -0.125 C 0.476562 -0.125 0.488281 -0.125 0.5 -0.125 C 0.507812 -0.132812 0.519531 -0.144531 0.53125 -0.15625 C 0.539062 -0.164062 0.550781 -0.171875 0.5625 -0.171875 C 0.570312 -0.179688 0.582031 -0.179688 0.59375 -0.171875 C 0.613281 -0.171875 0.628906 -0.164062 0.640625 -0.15625 C 0.648438 -0.144531 0.65625 -0.128906 0.65625 -0.109375 C 0.65625 -0.0976562 0.65625 -0.0859375 0.65625 -0.078125 C 0.632812 -0.046875 0.609375 -0.0195312 0.578125 0 C 0.554688 0.0078125 0.53125 0.015625 0.5 0.015625 C 0.476562 0.0234375 0.453125 0.03125 0.421875 0.03125 Z M 0.296875 -1.46875 C 0.265625 -1.46875 0.234375 -1.476562 0.203125 -1.5 C 0.179688 -1.53125 0.171875 -1.566406 0.171875 -1.609375 C 0.171875 -1.660156 0.179688 -1.695312 0.203125 -1.71875 C 0.234375 -1.738281 0.265625 -1.75 0.296875 -1.75 C 0.335938 -1.75 0.367188 -1.738281 0.390625 -1.71875 C 0.410156 -1.695312 0.421875 -1.660156 0.421875 -1.609375 C 0.421875 -1.566406 0.410156 -1.53125 0.390625 -1.5 C 0.367188 -1.476562 0.335938 -1.46875 0.296875 -1.46875 Z M 0.296875 -1.46875 "/></g></g></g><g fill="#452c80" fill-opacity="1"><g transform="translate(18.03024, 3.798801)"><g><path d="M 0.53125 0.03125 C 0.46875 0.03125 0.414062 0.0195312 0.375 0 C 0.34375 -0.0195312 0.316406 -0.0507812 0.296875 -0.09375 C 0.273438 -0.132812 0.265625 -0.1875 0.265625 -0.25 L 0.265625 -0.921875 L 0.09375 -0.921875 C 0.0703125 -0.921875 0.0546875 -0.925781 0.046875 -0.9375 C 0.0351562 -0.957031 0.03125 -0.984375 0.03125 -1.015625 C 0.03125 -1.046875 0.0351562 -1.066406 0.046875 -1.078125 C 0.0546875 -1.097656 0.0703125 -1.109375 0.09375 -1.109375 L 0.265625 -1.109375 L 0.265625 -1.546875 C 0.265625 -1.566406 0.269531 -1.582031 0.28125 -1.59375 C 0.300781 -1.601562 0.328125 -1.609375 0.359375 -1.609375 C 0.390625 -1.609375 0.410156 -1.601562 0.421875 -1.59375 C 0.441406 -1.582031 0.453125 -1.566406 0.453125 -1.546875 L 0.453125 -1.109375 L 0.734375 -1.109375 C 0.753906 -1.109375 0.769531 -1.097656 0.78125 -1.078125 C 0.789062 -1.066406 0.796875 -1.046875 0.796875 -1.015625 C 0.796875 -0.984375 0.789062 -0.957031 0.78125 -0.9375 C 0.769531 -0.925781 0.753906 -0.921875 0.734375 -0.921875 L 0.453125 -0.921875 L 0.453125 -0.265625 C 0.453125 -0.210938 0.457031 -0.175781 0.46875 -0.15625 C 0.488281 -0.132812 0.515625 -0.125 0.546875 -0.125 C 0.578125 -0.125 0.601562 -0.128906 0.625 -0.140625 C 0.65625 -0.160156 0.6875 -0.1875 0.71875 -0.21875 C 0.726562 -0.226562 0.738281 -0.226562 0.75 -0.21875 C 0.769531 -0.21875 0.785156 -0.210938 0.796875 -0.203125 C 0.816406 -0.179688 0.828125 -0.160156 0.828125 -0.140625 C 0.828125 -0.128906 0.820312 -0.117188 0.8125 -0.109375 C 0.789062 -0.078125 0.765625 -0.046875 0.734375 -0.015625 C 0.703125 0.00390625 0.671875 0.015625 0.640625 0.015625 C 0.609375 0.0234375 0.570312 0.03125 0.53125 0.03125 Z M 0.53125 0.03125 "/></g></g></g><g fill="#452c80" fill-opacity="1"><g transform="translate(18.886167, 3.798801)"><g><path d="M 0.5625 0.03125 C 0.476562 0.03125 0.40625 0.015625 0.34375 -0.015625 C 0.28125 -0.0546875 0.226562 -0.117188 0.1875 -0.203125 C 0.15625 -0.285156 0.140625 -0.390625 0.140625 -0.515625 C 0.140625 -0.585938 0.144531 -0.65625 0.15625 -0.71875 C 0.175781 -0.789062 0.195312 -0.851562 0.21875 -0.90625 C 0.25 -0.957031 0.285156 -1 0.328125 -1.03125 C 0.367188 -1.070312 0.410156 -1.097656 0.453125 -1.109375 C 0.503906 -1.128906 0.5625 -1.140625 0.625 -1.140625 C 0.675781 -1.140625 0.722656 -1.128906 0.765625 -1.109375 C 0.816406 -1.097656 0.867188 -1.082031 0.921875 -1.0625 L 0.921875 -1.078125 C 0.921875 -1.097656 0.925781 -1.113281 0.9375 -1.125 C 0.957031 -1.132812 0.984375 -1.140625 1.015625 -1.140625 C 1.046875 -1.140625 1.066406 -1.132812 1.078125 -1.125 C 1.097656 -1.113281 1.109375 -1.097656 1.109375 -1.078125 L 1.109375 -0.21875 C 1.109375 -0.195312 1.109375 -0.175781 1.109375 -0.15625 C 1.117188 -0.144531 1.128906 -0.132812 1.140625 -0.125 C 1.148438 -0.125 1.160156 -0.125 1.171875 -0.125 C 1.191406 -0.125 1.207031 -0.125 1.21875 -0.125 C 1.226562 -0.132812 1.234375 -0.140625 1.234375 -0.140625 C 1.242188 -0.148438 1.257812 -0.160156 1.28125 -0.171875 C 1.289062 -0.179688 1.300781 -0.179688 1.3125 -0.171875 C 1.320312 -0.171875 1.332031 -0.164062 1.34375 -0.15625 C 1.363281 -0.144531 1.375 -0.128906 1.375 -0.109375 C 1.375 -0.0976562 1.367188 -0.0859375 1.359375 -0.078125 C 1.347656 -0.046875 1.328125 -0.0195312 1.296875 0 C 1.273438 0.0078125 1.25 0.015625 1.21875 0.015625 C 1.1875 0.0234375 1.160156 0.03125 1.140625 0.03125 C 1.097656 0.03125 1.066406 0.0234375 1.046875 0.015625 C 1.023438 0.015625 1.003906 0.0078125 0.984375 0 C 0.960938 -0.0195312 0.945312 -0.0390625 0.9375 -0.0625 C 0.925781 -0.0820312 0.921875 -0.109375 0.921875 -0.140625 C 0.921875 -0.148438 0.921875 -0.160156 0.921875 -0.171875 C 0.878906 -0.109375 0.835938 -0.0625 0.796875 -0.03125 C 0.765625 -0.0078125 0.726562 0.00390625 0.6875 0.015625 C 0.644531 0.0234375 0.601562 0.03125 0.5625 0.03125 Z M 0.328125 -0.53125 C 0.328125 -0.445312 0.335938 -0.375 0.359375 -0.3125 C 0.378906 -0.257812 0.40625 -0.21875 0.4375 -0.1875 C 0.476562 -0.15625 0.53125 -0.140625 0.59375 -0.140625 C 0.632812 -0.140625 0.675781 -0.144531 0.71875 -0.15625 C 0.757812 -0.175781 0.796875 -0.203125 0.828125 -0.234375 C 0.859375 -0.265625 0.890625 -0.304688 0.921875 -0.359375 L 0.921875 -0.90625 C 0.867188 -0.925781 0.820312 -0.941406 0.78125 -0.953125 C 0.738281 -0.960938 0.695312 -0.96875 0.65625 -0.96875 C 0.613281 -0.96875 0.578125 -0.960938 0.546875 -0.953125 C 0.515625 -0.941406 0.484375 -0.921875 0.453125 -0.890625 C 0.429688 -0.867188 0.410156 -0.84375 0.390625 -0.8125 C 0.367188 -0.78125 0.351562 -0.738281 0.34375 -0.6875 C 0.332031 -0.632812 0.328125 -0.582031 0.328125 -0.53125 Z M 0.328125 -0.53125 "/></g></g></g><g fill="#452c80" fill-opacity="1"><g transform="translate(20.258298, 3.798801)"><g><path d="M 0.421875 0.03125 C 0.347656 0.03125 0.289062 0.015625 0.25 -0.015625 C 0.21875 -0.0546875 0.203125 -0.113281 0.203125 -0.1875 L 0.203125 -2.046875 C 0.203125 -2.066406 0.207031 -2.078125 0.21875 -2.078125 C 0.238281 -2.085938 0.265625 -2.09375 0.296875 -2.09375 C 0.328125 -2.09375 0.351562 -2.085938 0.375 -2.078125 C 0.394531 -2.078125 0.40625 -2.066406 0.40625 -2.046875 L 0.40625 -0.21875 C 0.40625 -0.1875 0.410156 -0.160156 0.421875 -0.140625 C 0.429688 -0.128906 0.445312 -0.125 0.46875 -0.125 C 0.476562 -0.125 0.488281 -0.125 0.5 -0.125 C 0.519531 -0.132812 0.535156 -0.144531 0.546875 -0.15625 C 0.554688 -0.164062 0.566406 -0.171875 0.578125 -0.171875 C 0.585938 -0.179688 0.597656 -0.179688 0.609375 -0.171875 C 0.617188 -0.171875 0.628906 -0.164062 0.640625 -0.15625 C 0.648438 -0.144531 0.65625 -0.128906 0.65625 -0.109375 C 0.664062 -0.0976562 0.664062 -0.0859375 0.65625 -0.078125 C 0.644531 -0.0546875 0.625 -0.0351562 0.59375 -0.015625 C 0.570312 0.00390625 0.546875 0.015625 0.515625 0.015625 C 0.484375 0.0234375 0.453125 0.03125 0.421875 0.03125 Z M 0.421875 0.03125 "/></g></g></g></g></g><g transform="matrix(1, 0, 0, 1, 7, 21)"><g clip-path="url(#e5ce755191)"><g fill="#ab68e6" fill-opacity="1"><g transform="translate(0.980743, 1.906586)"><g><path d="M 0.5 -0.734375 L 0.5 -0.609375 C 0.5 -0.597656 0.492188 -0.59375 0.484375 -0.59375 L 0.375 -0.59375 C 0.363281 -0.59375 0.359375 -0.597656 0.359375 -0.609375 L 0.359375 -0.703125 C 0.359375 -0.722656 0.34375 -0.734375 0.3125 -0.734375 L 0.25 -0.734375 C 0.21875 -0.734375 0.203125 -0.722656 0.203125 -0.703125 L 0.203125 -0.1875 C 0.203125 -0.15625 0.21875 -0.140625 0.25 -0.140625 L 0.3125 -0.140625 C 0.34375 -0.140625 0.359375 -0.15625 0.359375 -0.1875 L 0.359375 -0.28125 C 0.359375 -0.289062 0.363281 -0.296875 0.375 -0.296875 L 0.484375 -0.296875 C 0.492188 -0.296875 0.5 -0.289062 0.5 -0.28125 L 0.5 -0.15625 C 0.5 -0.101562 0.484375 -0.0625 0.453125 -0.03125 C 0.429688 -0.0078125 0.394531 0 0.34375 0 L 0.21875 0 C 0.164062 0 0.125 -0.0078125 0.09375 -0.03125 C 0.0703125 -0.0625 0.0625 -0.101562 0.0625 -0.15625 L 0.0625 -0.734375 C 0.0625 -0.785156 0.0703125 -0.820312 0.09375 -0.84375 C 0.125 -0.875 0.164062 -0.890625 0.21875 -0.890625 L 0.34375 -0.890625 C 0.394531 -0.890625 0.429688 -0.875 0.453125 -0.84375 C 0.484375 -0.820312 0.5 -0.785156 0.5 -0.734375 Z M 0.5 -0.734375 "/></g></g></g><g fill="#ab68e6" fill-opacity="1"><g transform="translate(1.643654, 1.906586)"><g><path d="M 0.5 -0.609375 L 0.5 -0.390625 C 0.5 -0.328125 0.476562 -0.285156 0.4375 -0.265625 L 0.5 -0.015625 C 0.5 -0.00390625 0.492188 0 0.484375 0 L 0.375 0 C 0.363281 0 0.359375 -0.00390625 0.359375 -0.015625 L 0.296875 -0.234375 L 0.203125 -0.234375 L 0.203125 -0.015625 C 0.203125 -0.00390625 0.195312 0 0.1875 0 L 0.078125 0 C 0.0664062 0 0.0625 -0.00390625 0.0625 -0.015625 L 0.0625 -0.765625 C 0.0625 -0.773438 0.0664062 -0.78125 0.078125 -0.78125 L 0.34375 -0.78125 C 0.394531 -0.78125 0.429688 -0.765625 0.453125 -0.734375 C 0.484375 -0.710938 0.5 -0.671875 0.5 -0.609375 Z M 0.203125 -0.375 L 0.3125 -0.375 C 0.34375 -0.375 0.359375 -0.390625 0.359375 -0.421875 L 0.359375 -0.59375 C 0.359375 -0.625 0.34375 -0.640625 0.3125 -0.640625 L 0.203125 -0.640625 Z M 0.203125 -0.375 "/></g></g></g><g fill="#ab68e6" fill-opacity="1"><g transform="translate(2.305463, 1.906586)"><g><path d="M 0.578125 0 L 0.46875 0 C 0.457031 0 0.453125 -0.00390625 0.453125 -0.015625 L 0.421875 -0.15625 L 0.203125 -0.15625 L 0.171875 -0.015625 C 0.171875 -0.00390625 0.164062 0 0.15625 0 L 0.046875 0 C 0.0351562 0 0.03125 -0.00390625 0.03125 -0.015625 L 0.21875 -0.765625 C 0.21875 -0.773438 0.222656 -0.78125 0.234375 -0.78125 L 0.390625 -0.78125 C 0.398438 -0.78125 0.40625 -0.773438 0.40625 -0.765625 L 0.59375 -0.015625 C 0.59375 -0.00390625 0.585938 0 0.578125 0 Z M 0.390625 -0.28125 L 0.3125 -0.578125 L 0.25 -0.28125 Z M 0.390625 -0.28125 "/></g></g></g><g fill="#ab68e6" fill-opacity="1"><g transform="translate(3.041173, 1.906586)"><g><path d="M 0.5 -0.765625 L 0.5 -0.640625 C 0.5 -0.628906 0.492188 -0.625 0.484375 -0.625 L 0.203125 -0.625 L 0.203125 -0.4375 L 0.421875 -0.4375 C 0.429688 -0.4375 0.4375 -0.429688 0.4375 -0.421875 L 0.4375 -0.3125 C 0.4375 -0.300781 0.429688 -0.296875 0.421875 -0.296875 L 0.203125 -0.296875 L 0.203125 -0.015625 C 0.203125 -0.00390625 0.195312 0 0.1875 0 L 0.078125 0 C 0.0664062 0 0.0625 -0.00390625 0.0625 -0.015625 L 0.0625 -0.765625 C 0.0625 -0.773438 0.0664062 -0.78125 0.078125 -0.78125 L 0.484375 -0.78125 C 0.492188 -0.78125 0.5 -0.773438 0.5 -0.765625 Z M 0.5 -0.765625 "/></g></g></g><g fill="#ab68e6" fill-opacity="1"><g transform="translate(3.702982, 1.906586)"><g><path d="M 0.453125 -0.78125 L 0.046875 -0.78125 C 0.0351562 -0.78125 0.03125 -0.773438 0.03125 -0.765625 L 0.03125 -0.640625 C 0.03125 -0.628906 0.0351562 -0.625 0.046875 -0.625 L 0.1875 -0.625 L 0.1875 -0.015625 C 0.1875 -0.00390625 0.191406 0 0.203125 0 L 0.3125 0 C 0.320312 0 0.328125 -0.00390625 0.328125 -0.015625 L 0.328125 -0.625 L 0.453125 -0.625 C 0.472656 -0.625 0.484375 -0.628906 0.484375 -0.640625 L 0.484375 -0.765625 C 0.484375 -0.773438 0.472656 -0.78125 0.453125 -0.78125 Z M 0.453125 -0.78125 "/></g></g></g><g fill="#ab68e6" fill-opacity="1"><g transform="translate(4.32067, 1.906586)"><g><path d="M 0.5 -0.765625 L 0.5 -0.640625 C 0.5 -0.628906 0.492188 -0.625 0.484375 -0.625 L 0.203125 -0.625 L 0.203125 -0.453125 L 0.421875 -0.453125 C 0.429688 -0.453125 0.4375 -0.445312 0.4375 -0.4375 L 0.4375 -0.328125 C 0.4375 -0.316406 0.429688 -0.3125 0.421875 -0.3125 L 0.203125 -0.3125 L 0.203125 -0.140625 L 0.484375 -0.140625 C 0.492188 -0.140625 0.5 -0.132812 0.5 -0.125 L 0.5 -0.015625 C 0.5 -0.00390625 0.492188 0 0.484375 0 L 0.078125 0 C 0.0664062 0 0.0625 -0.00390625 0.0625 -0.015625 L 0.0625 -0.765625 C 0.0625 -0.773438 0.0664062 -0.78125 0.078125 -0.78125 L 0.484375 -0.78125 C 0.492188 -0.78125 0.5 -0.773438 0.5 -0.765625 Z M 0.5 -0.765625 "/></g></g></g><g fill="#ab68e6" fill-opacity="1"><g transform="translate(4.981376, 1.906586)"><g><path d="M 0.0625 -0.015625 L 0.0625 -0.765625 C 0.0625 -0.773438 0.0664062 -0.78125 0.078125 -0.78125 L 0.34375 -0.78125 C 0.394531 -0.78125 0.429688 -0.765625 0.453125 -0.734375 C 0.484375 -0.703125 0.5 -0.660156 0.5 -0.609375 L 0.5 -0.15625 C 0.5 -0.101562 0.484375 -0.0625 0.453125 -0.03125 C 0.429688 -0.0078125 0.394531 0 0.34375 0 L 0.078125 0 C 0.0664062 0 0.0625 -0.00390625 0.0625 -0.015625 Z M 0.203125 -0.140625 L 0.3125 -0.140625 C 0.34375 -0.140625 0.359375 -0.15625 0.359375 -0.1875 L 0.359375 -0.578125 C 0.359375 -0.609375 0.34375 -0.625 0.3125 -0.625 L 0.203125 -0.625 Z M 0.203125 -0.140625 "/></g></g></g><g fill="#ab68e6" fill-opacity="1"><g transform="translate(5.643185, 1.906586)"><g><path d="M 0.0625 -0.015625 L 0.0625 -0.125 C 0.0625 -0.132812 0.0664062 -0.140625 0.078125 -0.140625 L 0.171875 -0.140625 C 0.191406 -0.140625 0.203125 -0.132812 0.203125 -0.125 L 0.203125 -0.015625 C 0.203125 -0.00390625 0.191406 0 0.171875 0 L 0.078125 0 C 0.0664062 0 0.0625 -0.00390625 0.0625 -0.015625 Z M 0.0625 -0.015625 "/></g></g></g><g fill="#ab68e6" fill-opacity="1"><g transform="translate(6.008287, 1.906586)"><g/></g></g><g fill="#ab68e6" fill-opacity="1"><g transform="translate(6.394345, 1.906586)"><g><path d="M 0.390625 -0.890625 L 0.515625 -0.890625 C 0.523438 -0.890625 0.53125 -0.882812 0.53125 -0.875 L 0.53125 -0.015625 C 0.53125 -0.00390625 0.523438 0 0.515625 0 L 0.40625 0 C 0.394531 0 0.382812 -0.00390625 0.375 -0.015625 L 0.21875 -0.484375 L 0.203125 -0.484375 L 0.203125 -0.015625 C 0.203125 -0.00390625 0.195312 0 0.1875 0 L 0.078125 0 C 0.0664062 0 0.0625 -0.00390625 0.0625 -0.015625 L 0.0625 -0.875 C 0.0625 -0.882812 0.0664062 -0.890625 0.078125 -0.890625 L 0.1875 -0.890625 C 0.195312 -0.890625 0.203125 -0.882812 0.203125 -0.875 L 0.375 -0.40625 L 0.375 -0.875 C 0.375 -0.882812 0.378906 -0.890625 0.390625 -0.890625 Z M 0.390625 -0.890625 "/></g></g></g><g fill="#ab68e6" fill-opacity="1"><g transform="translate(7.085935, 1.906586)"><g><path d="M 0.0625 -0.15625 L 0.0625 -0.609375 C 0.0625 -0.671875 0.0703125 -0.710938 0.09375 -0.734375 C 0.125 -0.765625 0.164062 -0.78125 0.21875 -0.78125 L 0.34375 -0.78125 C 0.394531 -0.78125 0.429688 -0.765625 0.453125 -0.734375 C 0.484375 -0.710938 0.5 -0.671875 0.5 -0.609375 L 0.5 -0.15625 C 0.5 -0.101562 0.484375 -0.0625 0.453125 -0.03125 C 0.429688 -0.0078125 0.394531 0 0.34375 0 L 0.21875 0 C 0.164062 0 0.125 -0.0078125 0.09375 -0.03125 C 0.0703125 -0.0625 0.0625 -0.101562 0.0625 -0.15625 Z M 0.25 -0.140625 L 0.3125 -0.140625 C 0.34375 -0.140625 0.359375 -0.15625 0.359375 -0.1875 L 0.359375 -0.59375 C 0.359375 -0.625 0.34375 -0.640625 0.3125 -0.640625 L 0.25 -0.640625 C 0.21875 -0.640625 0.203125 -0.625 0.203125 -0.59375 L 0.203125 -0.1875 C 0.203125 -0.15625 0.21875 -0.140625 0.25 -0.140625 Z M 0.25 -0.140625 "/></g></g></g><g fill="#ab68e6" fill-opacity="1"><g transform="translate(7.747744, 1.906586)"><g><path d="M 0.453125 -0.78125 L 0.046875 -0.78125 C 0.0351562 -0.78125 0.03125 -0.773438 0.03125 -0.765625 L 0.03125 -0.640625 C 0.03125 -0.628906 0.0351562 -0.625 0.046875 -0.625 L 0.1875 -0.625 L 0.1875 -0.015625 C 0.1875 -0.00390625 0.191406 0 0.203125 0 L 0.3125 0 C 0.320312 0 0.328125 -0.00390625 0.328125 -0.015625 L 0.328125 -0.625 L 0.453125 -0.625 C 0.472656 -0.625 0.484375 -0.628906 0.484375 -0.640625 L 0.484375 -0.765625 C 0.484375 -0.773438 0.472656 -0.78125 0.453125 -0.78125 Z M 0.453125 -0.78125 "/></g></g></g><g fill="#ab68e6" fill-opacity="1"><g transform="translate(8.365433, 1.906586)"><g/></g></g><g fill="#ab68e6" fill-opacity="1"><g transform="translate(8.751491, 1.906586)"><g><path d="M 0.0625 -0.15625 L 0.0625 -0.609375 C 0.0625 -0.671875 0.0703125 -0.710938 0.09375 -0.734375 C 0.125 -0.765625 0.164062 -0.78125 0.21875 -0.78125 L 0.34375 -0.78125 C 0.394531 -0.78125 0.429688 -0.765625 0.453125 -0.734375 C 0.484375 -0.710938 0.5 -0.671875 0.5 -0.609375 L 0.5 -0.53125 C 0.5 -0.519531 0.492188 -0.515625 0.484375 -0.515625 L 0.375 -0.515625 C 0.363281 -0.515625 0.359375 -0.519531 0.359375 -0.53125 L 0.359375 -0.59375 C 0.359375 -0.625 0.34375 -0.640625 0.3125 -0.640625 L 0.25 -0.640625 C 0.21875 -0.640625 0.203125 -0.625 0.203125 -0.59375 L 0.203125 -0.1875 C 0.203125 -0.15625 0.21875 -0.140625 0.25 -0.140625 L 0.3125 -0.140625 C 0.34375 -0.140625 0.359375 -0.15625 0.359375 -0.1875 L 0.359375 -0.28125 L 0.296875 -0.28125 C 0.285156 -0.28125 0.28125 -0.285156 0.28125 -0.296875 L 0.28125 -0.40625 C 0.28125 -0.425781 0.285156 -0.4375 0.296875 -0.4375 L 0.484375 -0.4375 C 0.492188 -0.4375 0.5 -0.425781 0.5 -0.40625 L 0.5 -0.15625 C 0.5 -0.101562 0.484375 -0.0625 0.453125 -0.03125 C 0.429688 -0.0078125 0.394531 0 0.34375 0 L 0.21875 0 C 0.164062 0 0.125 -0.0078125 0.09375 -0.03125 C 0.0703125 -0.0625 0.0625 -0.101562 0.0625 -0.15625 Z M 0.0625 -0.15625 "/></g></g></g><g fill="#ab68e6" fill-opacity="1"><g transform="translate(9.4133, 1.906586)"><g><path d="M 0.5 -0.765625 L 0.5 -0.640625 C 0.5 -0.628906 0.492188 -0.625 0.484375 -0.625 L 0.203125 -0.625 L 0.203125 -0.453125 L 0.421875 -0.453125 C 0.429688 -0.453125 0.4375 -0.445312 0.4375 -0.4375 L 0.4375 -0.328125 C 0.4375 -0.316406 0.429688 -0.3125 0.421875 -0.3125 L 0.203125 -0.3125 L 0.203125 -0.140625 L 0.484375 -0.140625 C 0.492188 -0.140625 0.5 -0.132812 0.5 -0.125 L 0.5 -0.015625 C 0.5 -0.00390625 0.492188 0 0.484375 0 L 0.078125 0 C 0.0664062 0 0.0625 -0.00390625 0.0625 -0.015625 L 0.0625 -0.765625 C 0.0625 -0.773438 0.0664062 -0.78125 0.078125 -0.78125 L 0.484375 -0.78125 C 0.492188 -0.78125 0.5 -0.773438 0.5 -0.765625 Z M 0.5 -0.765625 "/></g></g></g><g fill="#ab68e6" fill-opacity="1"><g transform="translate(10.074006, 1.906586)"><g><path d="M 0.40625 -0.78125 L 0.515625 -0.78125 C 0.523438 -0.78125 0.53125 -0.773438 0.53125 -0.765625 L 0.53125 -0.015625 C 0.53125 -0.00390625 0.523438 0 0.515625 0 L 0.421875 0 C 0.410156 0 0.40625 -0.00390625 0.40625 -0.015625 L 0.1875 -0.4375 L 0.1875 -0.015625 C 0.1875 -0.00390625 0.179688 0 0.171875 0 L 0.078125 0 C 0.0664062 0 0.0625 -0.00390625 0.0625 -0.015625 L 0.0625 -0.765625 C 0.0625 -0.773438 0.0664062 -0.78125 0.078125 -0.78125 L 0.15625 -0.78125 C 0.164062 -0.78125 0.175781 -0.773438 0.1875 -0.765625 L 0.390625 -0.34375 L 0.390625 -0.765625 C 0.390625 -0.773438 0.394531 -0.78125 0.40625 -0.78125 Z M 0.40625 -0.78125 "/></g></g></g><g fill="#ab68e6" fill-opacity="1"><g transform="translate(10.765595, 1.906586)"><g><path d="M 0.5 -0.765625 L 0.5 -0.640625 C 0.5 -0.628906 0.492188 -0.625 0.484375 -0.625 L 0.203125 -0.625 L 0.203125 -0.453125 L 0.421875 -0.453125 C 0.429688 -0.453125 0.4375 -0.445312 0.4375 -0.4375 L 0.4375 -0.328125 C 0.4375 -0.316406 0.429688 -0.3125 0.421875 -0.3125 L 0.203125 -0.3125 L 0.203125 -0.140625 L 0.484375 -0.140625 C 0.492188 -0.140625 0.5 -0.132812 0.5 -0.125 L 0.5 -0.015625 C 0.5 -0.00390625 0.492188 0 0.484375 0 L 0.078125 0 C 0.0664062 0 0.0625 -0.00390625 0.0625 -0.015625 L 0.0625 -0.765625 C 0.0625 -0.773438 0.0664062 -0.78125 0.078125 -0.78125 L 0.484375 -0.78125 C 0.492188 -0.78125 0.5 -0.773438 0.5 -0.765625 Z M 0.5 -0.765625 "/></g></g></g><g fill="#ab68e6" fill-opacity="1"><g transform="translate(11.426301, 1.906586)"><g><path d="M 0.5 -0.609375 L 0.5 -0.390625 C 0.5 -0.328125 0.476562 -0.285156 0.4375 -0.265625 L 0.5 -0.015625 C 0.5 -0.00390625 0.492188 0 0.484375 0 L 0.375 0 C 0.363281 0 0.359375 -0.00390625 0.359375 -0.015625 L 0.296875 -0.234375 L 0.203125 -0.234375 L 0.203125 -0.015625 C 0.203125 -0.00390625 0.195312 0 0.1875 0 L 0.078125 0 C 0.0664062 0 0.0625 -0.00390625 0.0625 -0.015625 L 0.0625 -0.765625 C 0.0625 -0.773438 0.0664062 -0.78125 0.078125 -0.78125 L 0.34375 -0.78125 C 0.394531 -0.78125 0.429688 -0.765625 0.453125 -0.734375 C 0.484375 -0.710938 0.5 -0.671875 0.5 -0.609375 Z M 0.203125 -0.375 L 0.3125 -0.375 C 0.34375 -0.375 0.359375 -0.390625 0.359375 -0.421875 L 0.359375 -0.59375 C 0.359375 -0.625 0.34375 -0.640625 0.3125 -0.640625 L 0.203125 -0.640625 Z M 0.203125 -0.375 "/></g></g></g><g fill="#ab68e6" fill-opacity="1"><g transform="translate(12.08811, 1.906586)"><g><path d="M 0.578125 0 L 0.46875 0 C 0.457031 0 0.453125 -0.00390625 0.453125 -0.015625 L 0.421875 -0.15625 L 0.203125 -0.15625 L 0.171875 -0.015625 C 0.171875 -0.00390625 0.164062 0 0.15625 0 L 0.046875 0 C 0.0351562 0 0.03125 -0.00390625 0.03125 -0.015625 L 0.21875 -0.765625 C 0.21875 -0.773438 0.222656 -0.78125 0.234375 -0.78125 L 0.390625 -0.78125 C 0.398438 -0.78125 0.40625 -0.773438 0.40625 -0.765625 L 0.59375 -0.015625 C 0.59375 -0.00390625 0.585938 0 0.578125 0 Z M 0.390625 -0.28125 L 0.3125 -0.578125 L 0.25 -0.28125 Z M 0.390625 -0.28125 "/></g></g></g><g fill="#ab68e6" fill-opacity="1"><g transform="translate(12.82382, 1.906586)"><g><path d="M 0.453125 -0.78125 L 0.046875 -0.78125 C 0.0351562 -0.78125 0.03125 -0.773438 0.03125 -0.765625 L 0.03125 -0.640625 C 0.03125 -0.628906 0.0351562 -0.625 0.046875 -0.625 L 0.1875 -0.625 L 0.1875 -0.015625 C 0.1875 -0.00390625 0.191406 0 0.203125 0 L 0.3125 0 C 0.320312 0 0.328125 -0.00390625 0.328125 -0.015625 L 0.328125 -0.625 L 0.453125 -0.625 C 0.472656 -0.625 0.484375 -0.628906 0.484375 -0.640625 L 0.484375 -0.765625 C 0.484375 -0.773438 0.472656 -0.78125 0.453125 -0.78125 Z M 0.453125 -0.78125 "/></g></g></g><g fill="#ab68e6" fill-opacity="1"><g transform="translate(13.441509, 1.906586)"><g><path d="M 0.5 -0.765625 L 0.5 -0.640625 C 0.5 -0.628906 0.492188 -0.625 0.484375 -0.625 L 0.203125 -0.625 L 0.203125 -0.453125 L 0.421875 -0.453125 C 0.429688 -0.453125 0.4375 -0.445312 0.4375 -0.4375 L 0.4375 -0.328125 C 0.4375 -0.316406 0.429688 -0.3125 0.421875 -0.3125 L 0.203125 -0.3125 L 0.203125 -0.140625 L 0.484375 -0.140625 C 0.492188 -0.140625 0.5 -0.132812 0.5 -0.125 L 0.5 -0.015625 C 0.5 -0.00390625 0.492188 0 0.484375 0 L 0.078125 0 C 0.0664062 0 0.0625 -0.00390625 0.0625 -0.015625 L 0.0625 -0.765625 C 0.0625 -0.773438 0.0664062 -0.78125 0.078125 -0.78125 L 0.484375 -0.78125 C 0.492188 -0.78125 0.5 -0.773438 0.5 -0.765625 Z M 0.5 -0.765625 "/></g></g></g><g fill="#ab68e6" fill-opacity="1"><g transform="translate(14.102214, 1.906586)"><g><path d="M 0.0625 -0.015625 L 0.0625 -0.765625 C 0.0625 -0.773438 0.0664062 -0.78125 0.078125 -0.78125 L 0.34375 -0.78125 C 0.394531 -0.78125 0.429688 -0.765625 0.453125 -0.734375 C 0.484375 -0.703125 0.5 -0.660156 0.5 -0.609375 L 0.5 -0.15625 C 0.5 -0.101562 0.484375 -0.0625 0.453125 -0.03125 C 0.429688 -0.0078125 0.394531 0 0.34375 0 L 0.078125 0 C 0.0664062 0 0.0625 -0.00390625 0.0625 -0.015625 Z M 0.203125 -0.140625 L 0.3125 -0.140625 C 0.34375 -0.140625 0.359375 -0.15625 0.359375 -0.1875 L 0.359375 -0.578125 C 0.359375 -0.609375 0.34375 -0.625 0.3125 -0.625 L 0.203125 -0.625 Z M 0.203125 -0.140625 "/></g></g></g><g fill="#ab68e6" fill-opacity="1"><g transform="translate(14.764023, 1.906586)"><g><path d="M 0.0625 -0.015625 L 0.0625 -0.125 C 0.0625 -0.132812 0.0664062 -0.140625 0.078125 -0.140625 L 0.171875 -0.140625 C 0.191406 -0.140625 0.203125 -0.132812 0.203125 -0.125 L 0.203125 -0.015625 C 0.203125 -0.00390625 0.191406 0 0.171875 0 L 0.078125 0 C 0.0664062 0 0.0625 -0.00390625 0.0625 -0.015625 Z M 0.0625 -0.015625 "/></g></g></g></g></g></svg>